Coordinates
version=1
nRows=21
nColumns=28
inDegrees=yes

Units are S.I. units (second, meters, Newtons, ...)
Angles are in degrees.

endheader
time	pelvis_tilt	pelvis_list	pelvis_rotation	pelvis_tx	pelvis_ty	pelvis_tz	hip_flexion_r	hip_adduction_r	hip_rotation_r	knee_angle_r	ankle_angle_r	subtalar_angle_r	mtp_angle_r	hip_flexion_l	hip_adduction_l	hip_rotation_l	knee_angle_l	socket_flexion	socket_adduction	socket_rotation	socket_tx	socket_ty	socket_tz	foot_flex	lumbar_extension	lumbar_bending	lumbar_rotation
      0.63333333	     -0.82114964	     -1.99778842	      8.42736174	     -0.00743024	      0.98855158	      0.26360765	     25.93060028	      1.15428628	    -10.51647788	     -7.40179062	     10.35555624	    -19.33365700	     -8.49949144	    -25.25324218	     -5.55314931	     16.36310078	      7.82109374	     10.68348475	      0.00000000	      0.00000000	      0.00000000	      0.00000000	      0.00000000	      7.98531503	    -10.14811509	      2.29541954	     -4.76828957
      0.63750000	     -0.81295385	     -1.98215096	      8.45676087	     -0.00740159	      0.98855694	      0.26354378	     25.96550174	      1.09589114	    -10.72579937	     -7.50421876	     10.41923739	    -18.97016179	     -7.99740234	    -25.26150209	     -5.54875151	     16.39403499	      7.82551630	     10.68618539	      0.00000000	      0.00000000	      0.00000000	      0.00000000	      0.00000000	      7.96191853	    -10.15007551	      2.28370046	     -4.79263501
      0.64166667	     -0.81569988	     -2.04348289	      8.44952463	     -0.00096255	      0.98761761	      0.26382345	     26.29889249	      1.17880552	    -10.53713512	     -8.57256225	     10.06682151	    -19.12353260	     -7.95146288	    -25.44911909	     -5.60246073	     16.31164050	      7.50401182	     10.72315044	      0.00000000	      0.00000000	      0.00000000	      0.00000000	      0.00000000	      7.91396721	    -10.07333860	      2.44417268	     -4.87538082
      0.64583333	     -0.66815014	     -2.18670982	      8.31526498	      0.00561909	      0.98685145	      0.26431787	     26.41382697	      1.44194269	    -10.22758877	     -9.48218317	      9.35162527	    -19.47226441	     -6.98348056	    -25.84294430	     -5.70626590	     16.00450391	      7.22427232	     10.76525202	      0.00000000	      0.00000000	      0.00000000	      0.00000000	      0.00000000	      7.83847049	    -10.16034150	      2.66584344	     -4.53460004
      0.65000000	     -0.70062824	     -2.30770889	      8.29705798	      0.01224457	      0.98594509	      0.26459705	     26.75859302	      1.57723575	    -10.13335407	    -10.53243566	      8.88718397	    -19.54930577	     -6.69264429	    -25.96821988	     -5.79954060	     15.87989218	      6.83580066	     10.78838614	      0.00000000	      0.00000000	      0.00000000	      0.00000000	      0.00000000	      7.75091002	    -10.00479342	      2.90116603	     -4.69846592
      0.65416667	     -0.58528182	     -2.42180528	      8.20698312	      0.01884324	      0.98527221	      0.26500228	     26.95820449	      1.75243313	    -10.03694574	    -11.59697317	      8.37460825	    -19.56758328	     -6.41038593	    -26.25521027	     -5.86590058	     15.62034958	      6.42547038	     10.81119532	      0.00000000	      0.00000000	      0.00000000	      0.00000000	      0.00000000	      7.61481945	    -10.05383242	      3.11425329	     -4.60446526
      0.65833333	     -0.49781128	     -2.57265009	      8.22126474	      0.02546071	      0.98468213	      0.26528221	     27.09429111	      1.94266694	     -9.85726374	    -12.51608755	      8.01583112	    -19.56017855	     -6.30832644	    -26.45838658	     -6.01756566	     15.57675715	      5.97170576	     10.82546826	      0.00000000	      0.00000000	      0.00000000	      0.00000000	      0.00000000	      7.43215846	    -10.04542533	      3.38052969	     -4.57539253
      0.66250000	     -0.40027821	     -2.62449249	      8.07225963	      0.03222012	      0.98396758	      0.26563881	     27.39332016	      1.98315328	    -10.07713438	    -13.71620986	      6.25679530	    -19.87248282	     -0.49430924	    -26.69429280	     -5.95929630	     15.21411177	      5.45099294	     10.84729554	      0.00000000	      0.00000000	      0.00000000	      0.00000000	      0.00000000	      7.28697343	    -10.06956816	      3.52294497	     -4.39463607
      0.66666667	     -0.26585550	     -2.76750234	      7.99100762	      0.03894753	      0.98348444	      0.26603863	     27.52924990	      2.17959713	    -10.02430424	    -14.74892117	      5.82898935	    -19.87967225	     -0.49567153	    -26.92696374	     -6.04331880	     14.99658986	      4.91263437	     10.85045731	      0.00000000	      0.00000000	      0.00000000	      0.00000000	      0.00000000	      7.06450896	    -10.09575112	      3.77563066	     -4.34267055
      0.67083333	     -0.13357168	     -2.91045813	      7.88488913	      0.04564572	      0.98307143	      0.26646279	     27.67322321	      2.38409330	     -9.91582787	    -15.80458003	      5.42014363	    -19.85093384	     -0.41374254	    -27.11822905	     -6.10353381	     14.70635471	      4.30152421	     10.85598644	      0.00000000	      0.00000000	      0.00000000	      0.00000000	      0.00000000	      6.84465242	    -10.15688098	      4.02167525	     -4.25418794
      0.67500000	     -0.02830630	     -3.08114552	      7.87012146	      0.05233093	      0.98276676	      0.26675675	     27.74489657	      2.60102423	     -9.73200347	    -16.68266900	      5.14775281	    -19.81609096	     -0.38222379	    -27.23222689	     -6.23959274	     14.66319335	      3.66582640	     10.87671628	      0.00000000	      0.00000000	      0.00000000	      0.00000000	      0.00000000	      6.53495364	    -10.17131140	      4.32516316	     -4.20930453
      0.67916667	      0.17864599	     -3.12735576	      7.54355134	      0.05919698	      0.98236524	      0.26740048	     27.91506184	      2.71795214	     -9.81230249	    -17.94916848	      4.11413470	    -19.77028292	      2.72782259	    -27.51449224	     -6.07856771	     14.06602639	      2.95227024	     10.86053925	      0.00000000	      0.00000000	      0.00000000	      0.00000000	      0.00000000	      6.26904079	    -10.30152049	      4.40934699	     -3.76168012
      0.68333333	      0.30699078	     -3.30976742	      7.48579989	      0.06603560	      0.98220162	      0.26771390	     27.95674442	      2.94000684	     -9.74806127	    -18.85799405	      3.85689523	    -19.76823621	      2.72183121	    -27.59393991	     -6.17961142	     13.85362396	      2.17174024	     10.85396119	      0.00000000	      0.00000000	      0.00000000	      0.00000000	      0.00000000	      5.93640919	    -10.32547313	      4.71589868	     -3.75675564
      0.68750000	      0.45091973	     -3.48646619	      7.37764909	      0.07283607	      0.98208311	      0.26808753	     28.00654926	      3.16965290	     -9.68049443	    -19.80965676	      3.58284287	    -19.73252768	      2.73287584	    -27.67066611	     -6.24699246	     13.59030571	      1.34572843	     10.85017232	      0.00000000	      0.00000000	      0.00000000	      0.00000000	      0.00000000	      5.58645732	    -10.38078059	      5.02048014	     -3.72531089
      0.69166667	      0.64227849	     -3.63291928	      7.15586669	      0.07978313	      0.98199950	      0.26862309	     28.03028745	      3.39359177	     -9.65421439	    -20.84088608	      3.29356436	    -19.63161249	      2.81300379	    -27.78739539	     -6.21881644	     13.07843912	      0.42539519	     10.81674167	      0.00000000	      0.00000000	      0.00000000	      0.00000000	      0.00000000	      5.27545201	    -10.46604809	      5.24690794	     -3.61699082
      0.69583333	      0.83690564	     -3.77039645	      6.94965290	      0.08663007	      0.98201198	      0.26916372	     27.99946381	      3.62411906	     -9.55895524	    -21.78032510	      3.09965214	    -19.47724711	      2.95695662	    -27.86427011	     -6.19372289	     12.66173749	     -0.53954092	     10.78908959	      0.00000000	      0.00000000	      0.00000000	      0.00000000	      0.00000000	      4.91690578	    -10.57982378	      5.47548579	     -3.43945281
      0.70000000	      0.97535319	     -3.94928477	      6.88211058	      0.09345823	      0.98210613	      0.26948668	     27.94835314	      3.85350653	     -9.43026459	    -22.58773104	      2.96033995	    -19.39762811	      3.01726631	    -27.85187254	     -6.28146849	     12.49517628	     -1.43270648	     10.83126470	      0.00000000	      0.00000000	      0.00000000	      0.00000000	      0.00000000	      4.48202365	    -10.63092468	      5.76842299	     -3.35867887
      0.70416667	      1.16764671	     -4.11727814	      6.68091723	      0.10041130	      0.98223933	      0.26995675	     27.87573273	      4.08975060	     -9.44710764	    -23.47131973	      2.81427439	    -19.28486795	      3.10923017	    -27.83875982	     -6.27018668	     12.01535233	     -2.57482090	     10.74740516	      0.00000000	      0.00000000	      0.00000000	      0.00000000	      0.00000000	      4.05291385	    -10.72000722	      6.03444002	     -3.25603459
      0.70833333	      1.35295362	     -4.27725583	      6.49274551	      0.10734601	      0.98241570	      0.27042744	     27.76931607	      4.32507770	     -9.41024217	    -24.29799075	      2.71068779	    -19.13415096	      3.21977353	    -27.80959569	     -6.26423845	     11.59339236	     -3.68541963	     10.70785804	      0.00000000	      0.00000000	      0.00000000	      0.00000000	      0.00000000	      3.65748092	    -10.80951779	      6.28167108	     -3.13678907
      0.71250000	      1.74674018	     -4.26306133	      6.17232441	      0.11405918	      0.98277405	      0.27097329	     27.52516082	      4.35054516	     -9.56686735	    -25.30871721	      2.63132742	    -18.06409944	      5.85285607	    -27.92638674	     -6.01023354	     10.96247124	     -5.03925807	     10.57253140	      0.00000000	      0.00000000	      0.00000000	      0.00000000	      0.00000000	      3.35237588	    -11.19745032	      6.27174061	     -2.51337824
      0.71666667	      1.88674777	     -4.44898988	      6.03760041	      0.12100929	      0.98303717	      0.27130273	     27.39205639	      4.58235306	     -9.56705782	    -26.01401565	      2.56003983	    -18.02382459	      5.87759312	    -27.82666069	     -6.06206063	     10.65249460	     -6.06839526	     10.62714491	      0.00000000	      0.00000000	      0.00000000	      0.00000000	      0.00000000	      2.87140908	    -11.23646396	      6.56353950	     -2.49069328
